<?xml version="1.0" encoding="utf-8"?>
<!-- Generator: Adobe Illustrator 24.1.1, SVG Export Plug-In . SVG Version: 6.00 Build 0)  -->
<svg version="1.1" id="computer_on" xmlns="http://www.w3.org/2000/svg" xmlns:xlink="http://www.w3.org/1999/xlink" x="0px" y="0px"
	 viewBox="0 0 612 792" style="enable-background:new 0 0 612 792;" xml:space="preserve">
<style type="text/css">
	.st0{fill:url(#Rectangle_16_2_);}
	.st1{fill:#AB9971;}
	.st2{fill:#3C623E;}
	.st3{fill:url(#Rectangle_20_2_);}
	.st4{fill:url(#Rectangle_21_2_);}
	.st5{fill:#111511;}
	.st6{fill:url(#Rectangle_23_2_);}
	.st7{fill:url(#Path_23_2_);}
	.st8{fill:url(#Rectangle_26_2_);}
	.st9{fill:url(#Rectangle_27_2_);}
	.st10{fill:url(#Rectangle_28_2_);}
	.st11{fill:url(#Rectangle_29_2_);}
	.st12{fill:url(#Rectangle_30_2_);}
	.st13{fill:url(#Rectangle_31_2_);}
	.st14{fill:url(#Rectangle_32_2_);}
	.st15{fill:url(#Rectangle_33_2_);}
	.st16{fill:url(#Rectangle_34_2_);}
	.st17{fill:url(#Rectangle_35_2_);}
	.st18{fill:url(#Rectangle_36_2_);}
	.st19{fill:url(#Rectangle_37_2_);}
	.st20{fill:url(#Rectangle_38_2_);}
	.st21{fill:url(#Rectangle_39_2_);}
	.st22{fill:url(#Rectangle_40_2_);}
	.st23{fill:url(#Rectangle_41_2_);}
	.st24{fill:url(#Rectangle_42_2_);}
	.st25{fill:url(#Rectangle_43_2_);}
	.st26{fill:url(#Rectangle_44_2_);}
	.st27{fill:url(#Rectangle_45_2_);}
	.st28{fill:url(#Path_17_2_);}
	.st29{fill:url(#Path_18_2_);}
	.st30{fill:url(#Path_19_2_);}
	.st31{fill:url(#Path_20_2_);}
	.st32{fill:url(#Path_21_2_);}
	.st33{fill:url(#Path_22_2_);}
	.st34{fill:url(#Rectangle_16_3_);}
	.st35{fill:url(#Rectangle_20_3_);}
	.st36{fill:url(#Rectangle_21_3_);}
	.st37{fill:#0D5D5A;}
	.st38{fill:url(#Path_23_3_);}
	.st39{fill:url(#Rectangle_26_3_);}
	.st40{fill:url(#Rectangle_27_3_);}
	.st41{fill:url(#Rectangle_28_3_);}
	.st42{fill:url(#Rectangle_29_3_);}
	.st43{fill:url(#Rectangle_30_3_);}
	.st44{fill:url(#Rectangle_31_3_);}
	.st45{fill:url(#Rectangle_32_3_);}
	.st46{fill:url(#Rectangle_33_3_);}
	.st47{fill:url(#Rectangle_34_3_);}
	.st48{fill:url(#Rectangle_35_3_);}
	.st49{fill:url(#Rectangle_36_3_);}
	.st50{fill:url(#Rectangle_37_3_);}
	.st51{fill:url(#Rectangle_38_3_);}
	.st52{fill:url(#Rectangle_39_3_);}
	.st53{fill:url(#Rectangle_40_3_);}
	.st54{fill:url(#Rectangle_41_3_);}
	.st55{fill:url(#Rectangle_42_3_);}
	.st56{fill:url(#Rectangle_43_3_);}
	.st57{fill:url(#Rectangle_44_3_);}
	.st58{fill:url(#Rectangle_45_3_);}
	.st59{fill:url(#Path_17_3_);}
	.st60{fill:url(#Path_18_3_);}
	.st61{fill:url(#Path_19_3_);}
	.st62{fill:url(#Path_20_3_);}
	.st63{fill:url(#Path_21_3_);}
	.st64{fill:url(#Path_22_3_);}
</style>
<g id="Retro_Computer">
	<g id="Group_41" transform="translate(-421.48 -246.196)">
		
			<linearGradient id="Rectangle_16_2_" gradientUnits="userSpaceOnUse" x1="423.0832" y1="1029.0313" x2="423.0832" y2="1028.0313" gradientTransform="matrix(491.081 0 0 -6.754 -207041.5469 7914.7339)">
			<stop  offset="0" style="stop-color:#426630"/>
			<stop  offset="1" style="stop-color:#3A4E2F"/>
		</linearGradient>
		<rect id="Rectangle_16" x="481" y="964.7" class="st0" width="491.1" height="6.8"/>
		<rect id="Rectangle_17" x="633.4" y="831" class="st1" width="8.6" height="77.8"/>
		<rect id="Rectangle_18" x="633.4" y="831" class="st1" width="8.6" height="77.8"/>
		<rect id="Rectangle_19" x="588.1" y="709.6" class="st2" width="252.7" height="11.5"/>
		<g id="Group_36" transform="translate(454.619 246.196)">
			
				<linearGradient id="Rectangle_20_2_" gradientUnits="userSpaceOnUse" x1="-31.5228" y1="792.7528" x2="-31.5228" y2="791.9028" gradientTransform="matrix(436.13 0 0 -394.132 14017.7725 312547.6563)">
				<stop  offset="0" style="stop-color:#B6DA9C;stop-opacity:0.659"/>
				<stop  offset="1" style="stop-color:#203921"/>
			</linearGradient>
			<path id="Rectangle_20" class="st3" d="M58.7,69.7h422.1c3.9,0,7,3.1,7,7v380.1c0,3.9-3.1,7-7,7H58.7c-3.9,0-7-3.1-7-7V76.7
				C51.7,72.8,54.8,69.7,58.7,69.7z"/>
		</g>
		<g id="Group_37" transform="translate(490.156 294.145)">
			
				<linearGradient id="Rectangle_21_2_" gradientUnits="userSpaceOnUse" x1="-67.0369" y1="743.8091" x2="-67.0369" y2="744.7601" gradientTransform="matrix(364.331 0 0 -283.737 24657.4629 211399.5313)">
				<stop  offset="0" style="stop-color:#54652C"/>
				<stop  offset="1" style="stop-color:#445223"/>
			</linearGradient>
			<path id="Rectangle_21" class="st4" d="M58.7,69.7H409c3.9,0,7,3.1,7,7v269.7c0,3.9-3.1,7-7,7H58.7c-3.9,0-7-3.1-7-7V76.7
				C51.7,72.8,54.8,69.7,58.7,69.7z"/>
		</g>
		<g id="Group_38" transform="translate(505.056 303.009)">
			<path id="Rectangle_22" class="st5" d="M58.7,69.7h322.6c3.9,0,7,3.1,7,7V328c0,3.9-3.1,7-7,7H58.7c-3.9,0-7-3.1-7-7V76.7
				C51.7,72.8,54.8,69.7,58.7,69.7z"/>
		</g>
		<g id="Group_39" transform="translate(509.952 307.671)">
			
				<linearGradient id="Rectangle_23_2_" gradientUnits="userSpaceOnUse" x1="-86.7071" y1="730.2349" x2="-86.9171" y2="731.2349" gradientTransform="matrix(326.036 0 0 -255.274 28520.0176 186740.3125)">
				<stop  offset="0" style="stop-color:#000000"/>
				<stop  offset="1" style="stop-color:#545454"/>
			</linearGradient>
			<path id="Rectangle_23" class="st6" d="M56.7,69.7h316c2.8,0,5,2.2,5,5v245.3c0,2.8-2.2,5-5,5h-316c-2.8,0-5-2.2-5-5V74.7
				C51.7,71.9,53.9,69.7,56.7,69.7z"/>
		</g>
		
			<radialGradient id="Path_23_2_" cx="424.2256" cy="1036.4457" r="0.5" gradientTransform="matrix(40.693 0 0 -30.508 -16392.0293 32295.0449)" gradientUnits="userSpaceOnUse">
			<stop  offset="0" style="stop-color:#78CDD5"/>
			<stop  offset="1" style="stop-color:#3F939B"/>
		</radialGradient>
		<path id="Path_23" class="st7" d="M850.6,659.9h40.7v30.5h-40.7V659.9z"/>
		<g id="Group_40" transform="translate(432.905 650.97)">
			
				<linearGradient id="Rectangle_26_2_" gradientUnits="userSpaceOnUse" x1="-9.8197" y1="387.8614" x2="-9.8197" y2="386.9344" gradientTransform="matrix(481.267 0 0 -188.279 5018.2026 73095.8125)">
				<stop  offset="0" style="stop-color:#6B9560"/>
				<stop  offset="1" style="stop-color:#295F2F"/>
			</linearGradient>
			<path id="Rectangle_26" class="st8" d="M58.7,69.7H526c3.9,0,7,3.1,7,7v174.3c0,3.9-3.1,7-7,7H58.7c-3.9,0-7-3.1-7-7V76.7
				C51.7,72.8,54.8,69.7,58.7,69.7z"/>
		</g>
		
			<radialGradient id="Rectangle_27_2_" cx="425.238" cy="1035.8287" r="0.5" gradientTransform="matrix(22.447 0 0 -23.944 -9022.4209 25556.4961)" gradientUnits="userSpaceOnUse">
			<stop  offset="0" style="stop-color:#EF507B"/>
			<stop  offset="1" style="stop-color:#BA4163"/>
		</radialGradient>
		<rect id="Rectangle_27" x="511.7" y="742.6" class="st9" width="22.4" height="23.9"/>
		
			<radialGradient id="Rectangle_28_2_" cx="425.238" cy="1035.8287" r="0.5" gradientTransform="matrix(22.447 0 0 -23.944 -8981.7939 25556.8418)" gradientUnits="userSpaceOnUse">
			<stop  offset="0" style="stop-color:#EF507B"/>
			<stop  offset="1" style="stop-color:#BA4163"/>
		</radialGradient>
		<rect id="Rectangle_28" x="552.3" y="743" class="st10" width="22.4" height="23.9"/>
		
			<radialGradient id="Rectangle_29_2_" cx="428.8415" cy="1037.8138" r="0.5" gradientTransform="matrix(8.647 0 0 -77.82 -3189.2808 81632.5938)" gradientUnits="userSpaceOnUse">
			<stop  offset="0" style="stop-color:#6A351B"/>
			<stop  offset="1" style="stop-color:#602E14"/>
		</radialGradient>
		<rect id="Rectangle_29" x="514.6" y="831" class="st11" width="8.6" height="77.8"/>
		
			<radialGradient id="Rectangle_30_2_" cx="428.8415" cy="1037.8138" r="0.5" gradientTransform="matrix(8.647 0 0 -77.82 -3171.9868 81632.5938)" gradientUnits="userSpaceOnUse">
			<stop  offset="0" style="stop-color:#6A351B"/>
			<stop  offset="1" style="stop-color:#602E14"/>
		</radialGradient>
		<rect id="Rectangle_30" x="531.9" y="831" class="st12" width="8.6" height="77.8"/>
		
			<radialGradient id="Rectangle_31_2_" cx="428.8415" cy="1037.8138" r="0.5" gradientTransform="matrix(8.647 0 0 -77.82 -3155.5208 81632.6484)" gradientUnits="userSpaceOnUse">
			<stop  offset="0" style="stop-color:#6A351B"/>
			<stop  offset="1" style="stop-color:#602E14"/>
		</radialGradient>
		<rect id="Rectangle_31" x="548.3" y="831.1" class="st13" width="8.6" height="77.8"/>
		
			<radialGradient id="Rectangle_32_2_" cx="428.8415" cy="1037.8138" r="0.5" gradientTransform="matrix(8.647 0 0 -77.82 -3138.2268 81632.6484)" gradientUnits="userSpaceOnUse">
			<stop  offset="0" style="stop-color:#6A351B"/>
			<stop  offset="1" style="stop-color:#602E14"/>
		</radialGradient>
		<rect id="Rectangle_32" x="565.6" y="831.1" class="st14" width="8.6" height="77.8"/>
		
			<radialGradient id="Rectangle_33_2_" cx="428.8415" cy="1037.8138" r="0.5" gradientTransform="matrix(8.647 0 0 -77.82 -3121.5037 81632.5156)" gradientUnits="userSpaceOnUse">
			<stop  offset="0" style="stop-color:#6A351B"/>
			<stop  offset="1" style="stop-color:#602E14"/>
		</radialGradient>
		<rect id="Rectangle_33" x="582.4" y="830.9" class="st15" width="8.6" height="77.8"/>
		
			<radialGradient id="Rectangle_34_2_" cx="428.8415" cy="1037.8138" r="0.5" gradientTransform="matrix(8.647 0 0 -77.82 -3104.2107 81632.5156)" gradientUnits="userSpaceOnUse">
			<stop  offset="0" style="stop-color:#6A351B"/>
			<stop  offset="1" style="stop-color:#602E14"/>
		</radialGradient>
		<rect id="Rectangle_34" x="599.7" y="830.9" class="st16" width="8.6" height="77.8"/>
		
			<radialGradient id="Rectangle_35_2_" cx="428.8415" cy="1037.8138" r="0.5" gradientTransform="matrix(8.647 0 0 -77.82 -3087.7439 81632.5781)" gradientUnits="userSpaceOnUse">
			<stop  offset="0" style="stop-color:#6A351B"/>
			<stop  offset="1" style="stop-color:#602E14"/>
		</radialGradient>
		<rect id="Rectangle_35" x="616.1" y="831" class="st17" width="8.6" height="77.8"/>
		
			<radialGradient id="Rectangle_36_2_" cx="428.8415" cy="1037.8138" r="0.5" gradientTransform="matrix(8.647 0 0 -77.82 -3070.4497 81632.5781)" gradientUnits="userSpaceOnUse">
			<stop  offset="0" style="stop-color:#6A351B"/>
			<stop  offset="1" style="stop-color:#602E14"/>
		</radialGradient>
		<rect id="Rectangle_36" x="633.4" y="831" class="st18" width="8.6" height="77.8"/>
		
			<radialGradient id="Rectangle_37_2_" cx="428.8415" cy="1037.8138" r="0.5" gradientTransform="matrix(8.647 0 0 -77.82 -3053.5769 81632.5)" gradientUnits="userSpaceOnUse">
			<stop  offset="0" style="stop-color:#6A351B"/>
			<stop  offset="1" style="stop-color:#602E14"/>
		</radialGradient>
		<rect id="Rectangle_37" x="650.3" y="830.9" class="st19" width="8.6" height="77.8"/>
		
			<linearGradient id="Rectangle_38_2_" gradientUnits="userSpaceOnUse" x1="423.2775" y1="1038.0144" x2="423.2775" y2="1037.0924" gradientTransform="matrix(170.397 0 0 -62.208 -71261.2422 65323.8164)">
			<stop  offset="0" style="stop-color:#54574F"/>
			<stop  offset="1" style="stop-color:#1F1F1D"/>
		</linearGradient>
		<rect id="Rectangle_38" x="778.8" y="746.2" class="st20" width="170.4" height="62.2"/>
		
			<linearGradient id="Rectangle_39_2_" gradientUnits="userSpaceOnUse" x1="423.3208" y1="1031.2076" x2="423.3208" y2="1030.2076" gradientTransform="matrix(148.746 0 0 -8.594 -62102.3281 9635.9219)">
			<stop  offset="0" style="stop-color:#23221F"/>
			<stop  offset="1" style="stop-color:#151515"/>
		</linearGradient>
		<rect id="Rectangle_39" x="790.6" y="773.7" class="st21" width="148.7" height="8.6"/>
		
			<linearGradient id="Rectangle_40_2_" gradientUnits="userSpaceOnUse" x1="423.8696" y1="1034.9767" x2="423.8696" y2="1033.9767" gradientTransform="matrix(56.978 0 0 -16.271 -23287.2676 17609.2383)">
			<stop  offset="0" style="stop-color:#23221F"/>
			<stop  offset="1" style="stop-color:#151515"/>
		</linearGradient>
		<rect id="Rectangle_40" x="835.5" y="769.1" class="st22" width="57" height="16.3"/>
		
			<linearGradient id="Rectangle_41_2_" gradientUnits="userSpaceOnUse" x1="424.3927" y1="1032.0603" x2="424.3927" y2="1031.0603" gradientTransform="matrix(35.878 0 0 -9.621 -14305.2119 10721.6475)">
			<stop  offset="0" style="stop-color:#C5C697"/>
			<stop  offset="1" style="stop-color:#63634C"/>
		</linearGradient>
		<rect id="Rectangle_41" x="903.2" y="792.2" class="st23" width="35.9" height="9.6"/>
		
			<linearGradient id="Rectangle_42_2_" gradientUnits="userSpaceOnUse" x1="423.2775" y1="1038.0924" x2="423.2775" y2="1037.0924" gradientTransform="matrix(170.397 0 0 -62.208 -71260.4063 65398.3008)">
			<stop  offset="0" style="stop-color:#54574F"/>
			<stop  offset="1" style="stop-color:#242521"/>
		</linearGradient>
		<rect id="Rectangle_42" x="779.6" y="820.6" class="st24" width="170.4" height="62.2"/>
		
			<linearGradient id="Rectangle_43_2_" gradientUnits="userSpaceOnUse" x1="423.3208" y1="1031.2076" x2="423.3208" y2="1030.2076" gradientTransform="matrix(148.746 0 0 -8.594 -62101.4961 9710.4063)">
			<stop  offset="0" style="stop-color:#23221F"/>
			<stop  offset="1" style="stop-color:#181716"/>
		</linearGradient>
		<rect id="Rectangle_43" x="791.4" y="848.2" class="st25" width="148.7" height="8.6"/>
		
			<linearGradient id="Rectangle_44_2_" gradientUnits="userSpaceOnUse" x1="423.8696" y1="1034.9767" x2="423.8696" y2="1033.9767" gradientTransform="matrix(56.978 0 0 -16.271 -23286.4336 17683.7227)">
			<stop  offset="0" style="stop-color:#23221F"/>
			<stop  offset="1" style="stop-color:#181716"/>
		</linearGradient>
		<rect id="Rectangle_44" x="836.3" y="843.6" class="st26" width="57" height="16.3"/>
		
			<linearGradient id="Rectangle_45_2_" gradientUnits="userSpaceOnUse" x1="424.3927" y1="1032.0603" x2="424.3927" y2="1031.0603" gradientTransform="matrix(35.878 0 0 -9.621 -14304.3779 10796.1309)">
			<stop  offset="0" style="stop-color:#C5C697"/>
			<stop  offset="1" style="stop-color:#63634C"/>
		</linearGradient>
		<rect id="Rectangle_45" x="904" y="866.7" class="st27" width="35.9" height="9.6"/>
		
			<linearGradient id="Path_17_2_" gradientUnits="userSpaceOnUse" x1="423.0793" y1="1036.6661" x2="423.0793" y2="1035.6661" gradientTransform="matrix(510.339 0 0 -27.137 -215185.5313 29069.543)">
			<stop  offset="0" style="stop-color:#729B6A"/>
			<stop  offset="1" style="stop-color:#4F7E44"/>
		</linearGradient>
		<path id="Path_17" class="st28" d="M983.5,964.6H473.2v-27.1h510.3"/>
		
			<linearGradient id="Path_18_2_" gradientUnits="userSpaceOnUse" x1="423.1394" y1="1031.6517" x2="423.1394" y2="1030.6517" gradientTransform="matrix(318.043 0 0 -9.1 -133850.0469 10316.4004)">
			<stop  offset="0" style="stop-color:#B0BD6B"/>
			<stop  offset="1" style="stop-color:#86953F"/>
		</linearGradient>
		<path id="Path_18" class="st29" d="M567.5,937.5l4.8-9.1h308.9l4.3,9L567.5,937.5z"/>
		
			<linearGradient id="Path_19_2_" gradientUnits="userSpaceOnUse" x1="424.6844" y1="1032.0365" x2="424.6844" y2="1031.0365" gradientTransform="matrix(29.738 0 0 -9.589 -11718.041 10824.2764)">
			<stop  offset="0" style="stop-color:#B0BD6B"/>
			<stop  offset="1" style="stop-color:#86953F"/>
		</linearGradient>
		<path id="Path_19" class="st30" d="M896.3,937.7l4.8-9.6l20,0.1l4.9,9.4L896.3,937.7z"/>
		
			<linearGradient id="Path_20_2_" gradientUnits="userSpaceOnUse" x1="424.6685" y1="1032.0365" x2="424.6685" y2="1031.0365" gradientTransform="matrix(30.017 0 0 -9.589 -11793.207 10824.1533)">
			<stop  offset="0" style="stop-color:#B0BD6B"/>
			<stop  offset="1" style="stop-color:#86953F"/>
		</linearGradient>
		<path id="Path_20" class="st31" d="M939,937.6l4.8-9.6l20.3,0.1l4.9,9.4L939,937.6z"/>
		
			<linearGradient id="Path_21_2_" gradientUnits="userSpaceOnUse" x1="424.6843" y1="1032.0365" x2="424.6843" y2="1031.0365" gradientTransform="matrix(29.739 0 0 -9.589 -12128.792 10824.3281)">
			<stop  offset="0" style="stop-color:#B0BD6B"/>
			<stop  offset="1" style="stop-color:#86953F"/>
		</linearGradient>
		<path id="Path_21" class="st32" d="M486,937.7l4.8-9.6l20,0.1l4.9,9.4L486,937.7z"/>
		
			<linearGradient id="Path_22_2_" gradientUnits="userSpaceOnUse" x1="424.6686" y1="1032.0365" x2="424.6686" y2="1031.0365" gradientTransform="matrix(30.016 0 0 -9.589 -12203.1045 10824.2021)">
			<stop  offset="0" style="stop-color:#B0BD6B"/>
			<stop  offset="1" style="stop-color:#86953F"/>
		</linearGradient>
		<path id="Path_22" class="st33" d="M528.7,937.6l4.8-9.6l20.3,0.1l4.9,9.4L528.7,937.6z"/>
	</g>
</g>
<g id="Turn_On">
	<g id="Group_41_1_" transform="translate(-421.48 -246.196)">
		
			<linearGradient id="Rectangle_16_3_" gradientUnits="userSpaceOnUse" x1="423.0834" y1="1028.8624" x2="423.0834" y2="1027.8624" gradientTransform="matrix(491.081 0 0 -6.754 -207041.5469 7914.7339)">
			<stop  offset="0" style="stop-color:#426630"/>
			<stop  offset="1" style="stop-color:#3A4E2F"/>
		</linearGradient>
		<rect id="Rectangle_16_1_" x="481.1" y="965.8" class="st34" width="491.1" height="6.8"/>
		<rect id="Rectangle_17_1_" x="633.5" y="832.1" class="st1" width="8.6" height="77.8"/>
		<rect id="Rectangle_18_1_" x="633.5" y="832.1" class="st1" width="8.6" height="77.8"/>
		<rect id="Rectangle_19_1_" x="588.2" y="710.7" class="st2" width="252.7" height="11.5"/>
		<g id="Group_36_1_" transform="translate(454.619 246.196)">
			
				<linearGradient id="Rectangle_20_3_" gradientUnits="userSpaceOnUse" x1="-31.5226" y1="792.7499" x2="-31.5226" y2="791.8999" gradientTransform="matrix(436.13 0 0 -394.132 14017.7725 312547.6563)">
				<stop  offset="0" style="stop-color:#B6DA9C;stop-opacity:0.659"/>
				<stop  offset="1" style="stop-color:#203921"/>
			</linearGradient>
			<path id="Rectangle_20_1_" class="st35" d="M58.8,70.8h422.1c3.9,0,7,3.1,7,7v380.1c0,3.9-3.1,7-7,7H58.8c-3.9,0-7-3.1-7-7V77.8
				C51.8,73.9,54.9,70.8,58.8,70.8z"/>
		</g>
		<g id="Group_37_1_" transform="translate(490.156 294.145)">
			
				<linearGradient id="Rectangle_21_3_" gradientUnits="userSpaceOnUse" x1="-67.0367" y1="743.8051" x2="-67.0367" y2="744.756" gradientTransform="matrix(364.331 0 0 -283.737 24657.4629 211399.5313)">
				<stop  offset="0" style="stop-color:#54652C"/>
				<stop  offset="1" style="stop-color:#445223"/>
			</linearGradient>
			<path id="Rectangle_21_1_" class="st36" d="M58.8,70.8h350.3c3.9,0,7,3.1,7,7v269.7c0,3.9-3.1,7-7,7H58.8c-3.9,0-7-3.1-7-7V77.8
				C51.8,73.9,54.9,70.8,58.8,70.8z"/>
		</g>
		<g id="Group_38_1_" transform="translate(505.056 303.009)">
			<path id="Rectangle_22_1_" class="st5" d="M58.8,70.8h322.6c3.9,0,7,3.1,7,7v251.4c0,3.9-3.1,7-7,7H58.8c-3.9,0-7-3.1-7-7V77.8
				C51.8,73.9,54.9,70.8,58.8,70.8z"/>
		</g>
		<g id="Group_39_1_" transform="translate(509.952 307.671)">
			<path id="Rectangle_23_1_" class="st37" d="M56.8,70.8h316c2.8,0,5,2.2,5,5v245.3c0,2.8-2.2,5-5,5h-316c-2.8,0-5-2.2-5-5V75.8
				C51.8,73,54,70.8,56.8,70.8z"/>
		</g>
		
			<radialGradient id="Path_23_3_" cx="424.2275" cy="1036.4083" r="0.705" gradientTransform="matrix(40.693 0 0 -30.508 -16392.0293 32295.0449)" gradientUnits="userSpaceOnUse">
			<stop  offset="0" style="stop-color:#FEE990"/>
			<stop  offset="1" style="stop-color:#99812E"/>
		</radialGradient>
		<path id="Path_23_1_" class="st38" d="M850.7,661h40.7v30.5h-40.7V661z"/>
		<g id="Group_40_1_" transform="translate(432.905 650.97)">
			
				<linearGradient id="Rectangle_26_3_" gradientUnits="userSpaceOnUse" x1="-9.8195" y1="387.8553" x2="-9.8195" y2="386.9283" gradientTransform="matrix(481.267 0 0 -188.279 5018.2026 73095.8125)">
				<stop  offset="0" style="stop-color:#6B9560"/>
				<stop  offset="1" style="stop-color:#295F2F"/>
			</linearGradient>
			<path id="Rectangle_26_1_" class="st39" d="M58.8,70.8H526c3.9,0,7,3.1,7,7v174.3c0,3.9-3.1,7-7,7H58.8c-3.9,0-7-3.1-7-7V77.8
				C51.8,73.9,54.9,70.8,58.8,70.8z"/>
		</g>
		
			<radialGradient id="Rectangle_27_3_" cx="425.2415" cy="1035.7811" r="0.5" gradientTransform="matrix(22.447 0 0 -23.944 -9022.4209 25556.4961)" gradientUnits="userSpaceOnUse">
			<stop  offset="0" style="stop-color:#EF507B"/>
			<stop  offset="1" style="stop-color:#BA4163"/>
		</radialGradient>
		<rect id="Rectangle_27_1_" x="511.8" y="743.8" class="st40" width="22.4" height="23.9"/>
		
			<radialGradient id="Rectangle_28_3_" cx="425.2415" cy="1035.7811" r="0.5" gradientTransform="matrix(22.447 0 0 -23.944 -8981.7939 25556.8418)" gradientUnits="userSpaceOnUse">
			<stop  offset="0" style="stop-color:#EF507B"/>
			<stop  offset="1" style="stop-color:#BA4163"/>
		</radialGradient>
		<rect id="Rectangle_28_1_" x="552.4" y="744.1" class="st41" width="22.4" height="23.9"/>
		
			<radialGradient id="Rectangle_29_3_" cx="428.8507" cy="1037.7992" r="0.5" gradientTransform="matrix(8.647 0 0 -77.82 -3189.2808 81632.5938)" gradientUnits="userSpaceOnUse">
			<stop  offset="0" style="stop-color:#6A351B"/>
			<stop  offset="1" style="stop-color:#602E14"/>
		</radialGradient>
		<rect id="Rectangle_29_1_" x="514.7" y="832.2" class="st42" width="8.6" height="77.8"/>
		
			<radialGradient id="Rectangle_30_3_" cx="428.8507" cy="1037.7992" r="0.5" gradientTransform="matrix(8.647 0 0 -77.82 -3171.9868 81632.5938)" gradientUnits="userSpaceOnUse">
			<stop  offset="0" style="stop-color:#6A351B"/>
			<stop  offset="1" style="stop-color:#602E14"/>
		</radialGradient>
		<rect id="Rectangle_30_1_" x="532" y="832.2" class="st43" width="8.6" height="77.8"/>
		
			<radialGradient id="Rectangle_31_3_" cx="428.8507" cy="1037.7992" r="0.5" gradientTransform="matrix(8.647 0 0 -77.82 -3155.5208 81632.6484)" gradientUnits="userSpaceOnUse">
			<stop  offset="0" style="stop-color:#6A351B"/>
			<stop  offset="1" style="stop-color:#602E14"/>
		</radialGradient>
		<rect id="Rectangle_31_1_" x="548.4" y="832.2" class="st44" width="8.6" height="77.8"/>
		
			<radialGradient id="Rectangle_32_3_" cx="428.8507" cy="1037.7992" r="0.5" gradientTransform="matrix(8.647 0 0 -77.82 -3138.2268 81632.6484)" gradientUnits="userSpaceOnUse">
			<stop  offset="0" style="stop-color:#6A351B"/>
			<stop  offset="1" style="stop-color:#602E14"/>
		</radialGradient>
		<rect id="Rectangle_32_1_" x="565.7" y="832.2" class="st45" width="8.6" height="77.8"/>
		
			<radialGradient id="Rectangle_33_3_" cx="428.8507" cy="1037.7992" r="0.5" gradientTransform="matrix(8.647 0 0 -77.82 -3121.5037 81632.5156)" gradientUnits="userSpaceOnUse">
			<stop  offset="0" style="stop-color:#6A351B"/>
			<stop  offset="1" style="stop-color:#602E14"/>
		</radialGradient>
		<rect id="Rectangle_33_1_" x="582.4" y="832.1" class="st46" width="8.6" height="77.8"/>
		
			<radialGradient id="Rectangle_34_3_" cx="428.8507" cy="1037.7992" r="0.5" gradientTransform="matrix(8.647 0 0 -77.82 -3104.2107 81632.5156)" gradientUnits="userSpaceOnUse">
			<stop  offset="0" style="stop-color:#6A351B"/>
			<stop  offset="1" style="stop-color:#602E14"/>
		</radialGradient>
		<rect id="Rectangle_34_1_" x="599.7" y="832.1" class="st47" width="8.6" height="77.8"/>
		
			<radialGradient id="Rectangle_35_3_" cx="428.8507" cy="1037.7992" r="0.5" gradientTransform="matrix(8.647 0 0 -77.82 -3087.7439 81632.5781)" gradientUnits="userSpaceOnUse">
			<stop  offset="0" style="stop-color:#6A351B"/>
			<stop  offset="1" style="stop-color:#602E14"/>
		</radialGradient>
		<rect id="Rectangle_35_1_" x="616.2" y="832.1" class="st48" width="8.6" height="77.8"/>
		
			<radialGradient id="Rectangle_36_3_" cx="428.8507" cy="1037.7992" r="0.5" gradientTransform="matrix(8.647 0 0 -77.82 -3070.4497 81632.5781)" gradientUnits="userSpaceOnUse">
			<stop  offset="0" style="stop-color:#6A351B"/>
			<stop  offset="1" style="stop-color:#602E14"/>
		</radialGradient>
		<rect id="Rectangle_36_1_" x="633.5" y="832.1" class="st49" width="8.6" height="77.8"/>
		
			<radialGradient id="Rectangle_37_3_" cx="428.8507" cy="1037.7992" r="0.5" gradientTransform="matrix(8.647 0 0 -77.82 -3053.5769 81632.5)" gradientUnits="userSpaceOnUse">
			<stop  offset="0" style="stop-color:#6A351B"/>
			<stop  offset="1" style="stop-color:#602E14"/>
		</radialGradient>
		<rect id="Rectangle_37_1_" x="650.4" y="832.1" class="st50" width="8.6" height="77.8"/>
		
			<linearGradient id="Rectangle_38_3_" gradientUnits="userSpaceOnUse" x1="423.2779" y1="1037.9961" x2="423.2779" y2="1037.0741" gradientTransform="matrix(170.397 0 0 -62.208 -71261.2422 65323.8164)">
			<stop  offset="0" style="stop-color:#54574F"/>
			<stop  offset="1" style="stop-color:#1F1F1D"/>
		</linearGradient>
		<rect id="Rectangle_38_1_" x="778.9" y="747.3" class="st51" width="170.4" height="62.2"/>
		
			<linearGradient id="Rectangle_39_3_" gradientUnits="userSpaceOnUse" x1="423.3213" y1="1031.075" x2="423.3213" y2="1030.075" gradientTransform="matrix(148.746 0 0 -8.594 -62102.3281 9635.9219)">
			<stop  offset="0" style="stop-color:#23221F"/>
			<stop  offset="1" style="stop-color:#151515"/>
		</linearGradient>
		<rect id="Rectangle_39_1_" x="790.6" y="774.9" class="st52" width="148.7" height="8.6"/>
		
			<linearGradient id="Rectangle_40_3_" gradientUnits="userSpaceOnUse" x1="423.8709" y1="1034.9066" x2="423.8709" y2="1033.9066" gradientTransform="matrix(56.978 0 0 -16.271 -23287.2676 17609.2383)">
			<stop  offset="0" style="stop-color:#23221F"/>
			<stop  offset="1" style="stop-color:#151515"/>
		</linearGradient>
		<rect id="Rectangle_40_1_" x="835.6" y="770.3" class="st53" width="57" height="16.3"/>
		
			<linearGradient id="Rectangle_41_3_" gradientUnits="userSpaceOnUse" x1="424.3949" y1="1031.9418" x2="424.3949" y2="1030.9418" gradientTransform="matrix(35.878 0 0 -9.621 -14305.2119 10721.6475)">
			<stop  offset="0" style="stop-color:#C5C697"/>
			<stop  offset="1" style="stop-color:#63634C"/>
		</linearGradient>
		<rect id="Rectangle_41_1_" x="903.3" y="793.3" class="st54" width="35.9" height="9.6"/>
		
			<linearGradient id="Rectangle_42_3_" gradientUnits="userSpaceOnUse" x1="423.2779" y1="1038.0741" x2="423.2779" y2="1037.0741" gradientTransform="matrix(170.397 0 0 -62.208 -71260.4063 65398.3008)">
			<stop  offset="0" style="stop-color:#54574F"/>
			<stop  offset="1" style="stop-color:#242521"/>
		</linearGradient>
		<rect id="Rectangle_42_1_" x="779.7" y="821.8" class="st55" width="170.4" height="62.2"/>
		
			<linearGradient id="Rectangle_43_3_" gradientUnits="userSpaceOnUse" x1="423.3213" y1="1031.075" x2="423.3213" y2="1030.075" gradientTransform="matrix(148.746 0 0 -8.594 -62101.4961 9710.4063)">
			<stop  offset="0" style="stop-color:#23221F"/>
			<stop  offset="1" style="stop-color:#181716"/>
		</linearGradient>
		<rect id="Rectangle_43_1_" x="791.5" y="849.3" class="st56" width="148.7" height="8.6"/>
		
			<linearGradient id="Rectangle_44_3_" gradientUnits="userSpaceOnUse" x1="423.8709" y1="1034.9066" x2="423.8709" y2="1033.9066" gradientTransform="matrix(56.978 0 0 -16.271 -23286.4336 17683.7227)">
			<stop  offset="0" style="stop-color:#23221F"/>
			<stop  offset="1" style="stop-color:#181716"/>
		</linearGradient>
		<rect id="Rectangle_44_1_" x="836.4" y="844.8" class="st57" width="57" height="16.3"/>
		
			<linearGradient id="Rectangle_45_3_" gradientUnits="userSpaceOnUse" x1="424.3949" y1="1031.9418" x2="424.3949" y2="1030.9418" gradientTransform="matrix(35.878 0 0 -9.621 -14304.3779 10796.1309)">
			<stop  offset="0" style="stop-color:#C5C697"/>
			<stop  offset="1" style="stop-color:#63634C"/>
		</linearGradient>
		<rect id="Rectangle_45_1_" x="904.1" y="867.8" class="st58" width="35.9" height="9.6"/>
		
			<linearGradient id="Path_17_3_" gradientUnits="userSpaceOnUse" x1="423.0795" y1="1036.6241" x2="423.0795" y2="1035.6241" gradientTransform="matrix(510.339 0 0 -27.137 -215185.5313 29069.543)">
			<stop  offset="0" style="stop-color:#729B6A"/>
			<stop  offset="1" style="stop-color:#4F7E44"/>
		</linearGradient>
		<path id="Path_17_1_" class="st59" d="M983.6,965.8H473.2v-27.1h510.3"/>
		
			<linearGradient id="Path_18_3_" gradientUnits="userSpaceOnUse" x1="423.1396" y1="1031.5265" x2="423.1396" y2="1030.5265" gradientTransform="matrix(318.043 0 0 -9.1 -133850.0469 10316.4004)">
			<stop  offset="0" style="stop-color:#B0BD6B"/>
			<stop  offset="1" style="stop-color:#86953F"/>
		</linearGradient>
		<path id="Path_18_1_" class="st60" d="M567.5,938.6l4.8-9.1h308.9l4.3,9L567.5,938.6z"/>
		
			<linearGradient id="Path_19_3_" gradientUnits="userSpaceOnUse" x1="424.687" y1="1031.9176" x2="424.687" y2="1030.9176" gradientTransform="matrix(29.738 0 0 -9.589 -11718.041 10824.2764)">
			<stop  offset="0" style="stop-color:#B0BD6B"/>
			<stop  offset="1" style="stop-color:#86953F"/>
		</linearGradient>
		<path id="Path_19_1_" class="st61" d="M896.4,938.8l4.8-9.6l20,0.1l4.9,9.4L896.4,938.8z"/>
		
			<linearGradient id="Path_20_3_" gradientUnits="userSpaceOnUse" x1="424.6712" y1="1031.9176" x2="424.6712" y2="1030.9176" gradientTransform="matrix(30.017 0 0 -9.589 -11793.207 10824.1533)">
			<stop  offset="0" style="stop-color:#B0BD6B"/>
			<stop  offset="1" style="stop-color:#86953F"/>
		</linearGradient>
		<path id="Path_20_1_" class="st62" d="M939.1,938.7l4.8-9.6l20.3,0.1l4.9,9.4L939.1,938.7z"/>
		
			<linearGradient id="Path_21_3_" gradientUnits="userSpaceOnUse" x1="424.687" y1="1031.9176" x2="424.687" y2="1030.9176" gradientTransform="matrix(29.739 0 0 -9.589 -12128.792 10824.3281)">
			<stop  offset="0" style="stop-color:#B0BD6B"/>
			<stop  offset="1" style="stop-color:#86953F"/>
		</linearGradient>
		<path id="Path_21_1_" class="st63" d="M486.1,938.9l4.8-9.6l20,0.1l4.9,9.4L486.1,938.9z"/>
		
			<linearGradient id="Path_22_3_" gradientUnits="userSpaceOnUse" x1="424.6712" y1="1031.9176" x2="424.6712" y2="1030.9176" gradientTransform="matrix(30.016 0 0 -9.589 -12203.1045 10824.2021)">
			<stop  offset="0" style="stop-color:#B0BD6B"/>
			<stop  offset="1" style="stop-color:#86953F"/>
		</linearGradient>
		<path id="Path_22_1_" class="st64" d="M528.8,938.7l4.8-9.6l20.3,0.1l4.9,9.4L528.8,938.7z"/>
	</g>
</g>
</svg>
