<?xml version="1.0" encoding="utf-8"?>
<!-- Generator: Adobe Illustrator 24.1.1, SVG Export Plug-In . SVG Version: 6.00 Build 0)  -->
<svg version="1.1" id="computer_off" xmlns="http://www.w3.org/2000/svg" xmlns:xlink="http://www.w3.org/1999/xlink" x="0px"
	 y="0px" viewBox="0 0 612 792" style="enable-background:new 0 0 612 792;" xml:space="preserve">
<style type="text/css">
	.st0{fill:url(#Rectangle_16_1_);}
	.st1{fill:#AB9971;}
	.st2{fill:#3C623E;}
	.st3{fill:url(#Rectangle_20_1_);}
	.st4{fill:url(#Rectangle_21_1_);}
	.st5{fill:#111511;}
	.st6{fill:url(#Rectangle_23_1_);}
	.st7{fill:url(#Path_23_1_);}
	.st8{fill:url(#Rectangle_26_1_);}
	.st9{fill:url(#Rectangle_27_1_);}
	.st10{fill:url(#Rectangle_28_1_);}
	.st11{fill:url(#Rectangle_29_1_);}
	.st12{fill:url(#Rectangle_30_1_);}
	.st13{fill:url(#Rectangle_31_1_);}
	.st14{fill:url(#Rectangle_32_1_);}
	.st15{fill:url(#Rectangle_33_1_);}
	.st16{fill:url(#Rectangle_34_1_);}
	.st17{fill:url(#Rectangle_35_1_);}
	.st18{fill:url(#Rectangle_36_1_);}
	.st19{fill:url(#Rectangle_37_1_);}
	.st20{fill:url(#Rectangle_38_1_);}
	.st21{fill:url(#Rectangle_39_1_);}
	.st22{fill:url(#Rectangle_40_1_);}
	.st23{fill:url(#Rectangle_41_1_);}
	.st24{fill:url(#Rectangle_42_1_);}
	.st25{fill:url(#Rectangle_43_1_);}
	.st26{fill:url(#Rectangle_44_1_);}
	.st27{fill:url(#Rectangle_45_1_);}
	.st28{fill:url(#Path_17_1_);}
	.st29{fill:url(#Path_18_1_);}
	.st30{fill:url(#Path_19_1_);}
	.st31{fill:url(#Path_20_1_);}
	.st32{fill:url(#Path_21_1_);}
	.st33{fill:url(#Path_22_1_);}
</style>
<g id="Group_41" transform="translate(-421.48 -246.196)">
	
		<linearGradient id="Rectangle_16_1_" gradientUnits="userSpaceOnUse" x1="423.0832" y1="1029.0313" x2="423.0832" y2="1028.0313" gradientTransform="matrix(491.081 0 0 -6.754 -207041.5469 7914.7339)">
		<stop  offset="0" style="stop-color:#426630"/>
		<stop  offset="1" style="stop-color:#3A4E2F"/>
	</linearGradient>
	<rect id="Rectangle_16" x="481" y="964.7" class="st0" width="491.1" height="6.8"/>
	<rect id="Rectangle_17" x="633.4" y="831" class="st1" width="8.6" height="77.8"/>
	<rect id="Rectangle_18" x="633.4" y="831" class="st1" width="8.6" height="77.8"/>
	<rect id="Rectangle_19" x="588.1" y="709.6" class="st2" width="252.7" height="11.5"/>
	<g id="Group_36" transform="translate(454.619 246.196)">
		
			<linearGradient id="Rectangle_20_1_" gradientUnits="userSpaceOnUse" x1="-31.5228" y1="792.7528" x2="-31.5228" y2="791.9028" gradientTransform="matrix(436.13 0 0 -394.132 14017.7725 312547.6563)">
			<stop  offset="0" style="stop-color:#B6DA9C;stop-opacity:0.659"/>
			<stop  offset="1" style="stop-color:#203921"/>
		</linearGradient>
		<path id="Rectangle_20" class="st3" d="M58.7,69.7h422.1c3.9,0,7,3.1,7,7v380.1c0,3.9-3.1,7-7,7H58.7c-3.9,0-7-3.1-7-7V76.7
			C51.7,72.8,54.8,69.7,58.7,69.7z"/>
	</g>
	<g id="Group_37" transform="translate(490.156 294.145)">
		
			<linearGradient id="Rectangle_21_1_" gradientUnits="userSpaceOnUse" x1="-67.0369" y1="743.8091" x2="-67.0369" y2="744.7601" gradientTransform="matrix(364.331 0 0 -283.737 24657.4629 211399.5313)">
			<stop  offset="0" style="stop-color:#54652C"/>
			<stop  offset="1" style="stop-color:#445223"/>
		</linearGradient>
		<path id="Rectangle_21" class="st4" d="M58.7,69.7H409c3.9,0,7,3.1,7,7v269.7c0,3.9-3.1,7-7,7H58.7c-3.9,0-7-3.1-7-7V76.7
			C51.7,72.8,54.8,69.7,58.7,69.7z"/>
	</g>
	<g id="Group_38" transform="translate(505.056 303.009)">
		<path id="Rectangle_22" class="st5" d="M58.7,69.7h322.6c3.9,0,7,3.1,7,7V328c0,3.9-3.1,7-7,7H58.7c-3.9,0-7-3.1-7-7V76.7
			C51.7,72.8,54.8,69.7,58.7,69.7z"/>
	</g>
	<g id="Group_39" transform="translate(509.952 307.671)">
		
			<linearGradient id="Rectangle_23_1_" gradientUnits="userSpaceOnUse" x1="-86.7071" y1="730.2349" x2="-86.9171" y2="731.2349" gradientTransform="matrix(326.036 0 0 -255.274 28520.0176 186740.3125)">
			<stop  offset="0" style="stop-color:#000000"/>
			<stop  offset="1" style="stop-color:#545454"/>
		</linearGradient>
		<path id="Rectangle_23" class="st6" d="M56.7,69.7h316c2.8,0,5,2.2,5,5v245.3c0,2.8-2.2,5-5,5h-316c-2.8,0-5-2.2-5-5V74.7
			C51.7,71.9,53.9,69.7,56.7,69.7z"/>
	</g>
	
		<radialGradient id="Path_23_1_" cx="424.2256" cy="1036.4457" r="0.5" gradientTransform="matrix(40.693 0 0 -30.508 -16392.0293 32295.0449)" gradientUnits="userSpaceOnUse">
		<stop  offset="0" style="stop-color:#78CDD5"/>
		<stop  offset="1" style="stop-color:#3F939B"/>
	</radialGradient>
	<path id="blue_button" class="st7" d="M850.6,659.9h40.7v30.5h-40.7V659.9z"/>
	<g id="Group_40" transform="translate(432.905 650.97)">
		
			<linearGradient id="Rectangle_26_1_" gradientUnits="userSpaceOnUse" x1="-9.8197" y1="387.8614" x2="-9.8197" y2="386.9344" gradientTransform="matrix(481.267 0 0 -188.279 5018.2026 73095.8125)">
			<stop  offset="0" style="stop-color:#6B9560"/>
			<stop  offset="1" style="stop-color:#295F2F"/>
		</linearGradient>
		<path id="Rectangle_26" class="st8" d="M58.7,69.7H526c3.9,0,7,3.1,7,7v174.3c0,3.9-3.1,7-7,7H58.7c-3.9,0-7-3.1-7-7V76.7
			C51.7,72.8,54.8,69.7,58.7,69.7z"/>
	</g>
	
		<radialGradient id="Rectangle_27_1_" cx="425.238" cy="1035.8287" r="0.5" gradientTransform="matrix(22.447 0 0 -23.944 -9022.4209 25556.4961)" gradientUnits="userSpaceOnUse">
		<stop  offset="0" style="stop-color:#EF507B"/>
		<stop  offset="1" style="stop-color:#BA4163"/>
	</radialGradient>
	<rect id="Rectangle_27" x="511.7" y="742.6" class="st9" width="22.4" height="23.9"/>
	
		<radialGradient id="Rectangle_28_1_" cx="425.238" cy="1035.8287" r="0.5" gradientTransform="matrix(22.447 0 0 -23.944 -8981.7939 25556.8418)" gradientUnits="userSpaceOnUse">
		<stop  offset="0" style="stop-color:#EF507B"/>
		<stop  offset="1" style="stop-color:#BA4163"/>
	</radialGradient>
	<rect id="Rectangle_28" x="552.3" y="743" class="st10" width="22.4" height="23.9"/>
	
		<radialGradient id="Rectangle_29_1_" cx="428.8415" cy="1037.8138" r="0.5" gradientTransform="matrix(8.647 0 0 -77.82 -3189.2808 81632.5938)" gradientUnits="userSpaceOnUse">
		<stop  offset="0" style="stop-color:#6A351B"/>
		<stop  offset="1" style="stop-color:#602E14"/>
	</radialGradient>
	<rect id="Rectangle_29" x="514.6" y="831" class="st11" width="8.6" height="77.8"/>
	
		<radialGradient id="Rectangle_30_1_" cx="428.8415" cy="1037.8138" r="0.5" gradientTransform="matrix(8.647 0 0 -77.82 -3171.9868 81632.5938)" gradientUnits="userSpaceOnUse">
		<stop  offset="0" style="stop-color:#6A351B"/>
		<stop  offset="1" style="stop-color:#602E14"/>
	</radialGradient>
	<rect id="Rectangle_30" x="531.9" y="831" class="st12" width="8.6" height="77.8"/>
	
		<radialGradient id="Rectangle_31_1_" cx="428.8415" cy="1037.8138" r="0.5" gradientTransform="matrix(8.647 0 0 -77.82 -3155.5208 81632.6484)" gradientUnits="userSpaceOnUse">
		<stop  offset="0" style="stop-color:#6A351B"/>
		<stop  offset="1" style="stop-color:#602E14"/>
	</radialGradient>
	<rect id="Rectangle_31" x="548.3" y="831.1" class="st13" width="8.6" height="77.8"/>
	
		<radialGradient id="Rectangle_32_1_" cx="428.8415" cy="1037.8138" r="0.5" gradientTransform="matrix(8.647 0 0 -77.82 -3138.2268 81632.6484)" gradientUnits="userSpaceOnUse">
		<stop  offset="0" style="stop-color:#6A351B"/>
		<stop  offset="1" style="stop-color:#602E14"/>
	</radialGradient>
	<rect id="Rectangle_32" x="565.6" y="831.1" class="st14" width="8.6" height="77.8"/>
	
		<radialGradient id="Rectangle_33_1_" cx="428.8415" cy="1037.8138" r="0.5" gradientTransform="matrix(8.647 0 0 -77.82 -3121.5037 81632.5156)" gradientUnits="userSpaceOnUse">
		<stop  offset="0" style="stop-color:#6A351B"/>
		<stop  offset="1" style="stop-color:#602E14"/>
	</radialGradient>
	<rect id="Rectangle_33" x="582.4" y="830.9" class="st15" width="8.6" height="77.8"/>
	
		<radialGradient id="Rectangle_34_1_" cx="428.8415" cy="1037.8138" r="0.5" gradientTransform="matrix(8.647 0 0 -77.82 -3104.2107 81632.5156)" gradientUnits="userSpaceOnUse">
		<stop  offset="0" style="stop-color:#6A351B"/>
		<stop  offset="1" style="stop-color:#602E14"/>
	</radialGradient>
	<rect id="Rectangle_34" x="599.7" y="830.9" class="st16" width="8.6" height="77.8"/>
	
		<radialGradient id="Rectangle_35_1_" cx="428.8415" cy="1037.8138" r="0.5" gradientTransform="matrix(8.647 0 0 -77.82 -3087.7439 81632.5781)" gradientUnits="userSpaceOnUse">
		<stop  offset="0" style="stop-color:#6A351B"/>
		<stop  offset="1" style="stop-color:#602E14"/>
	</radialGradient>
	<rect id="Rectangle_35" x="616.1" y="831" class="st17" width="8.6" height="77.8"/>
	
		<radialGradient id="Rectangle_36_1_" cx="428.8415" cy="1037.8138" r="0.5" gradientTransform="matrix(8.647 0 0 -77.82 -3070.4497 81632.5781)" gradientUnits="userSpaceOnUse">
		<stop  offset="0" style="stop-color:#6A351B"/>
		<stop  offset="1" style="stop-color:#602E14"/>
	</radialGradient>
	<rect id="Rectangle_36" x="633.4" y="831" class="st18" width="8.6" height="77.8"/>
	
		<radialGradient id="Rectangle_37_1_" cx="428.8415" cy="1037.8138" r="0.5" gradientTransform="matrix(8.647 0 0 -77.82 -3053.5769 81632.5)" gradientUnits="userSpaceOnUse">
		<stop  offset="0" style="stop-color:#6A351B"/>
		<stop  offset="1" style="stop-color:#602E14"/>
	</radialGradient>
	<rect id="Rectangle_37" x="650.3" y="830.9" class="st19" width="8.6" height="77.8"/>
	
		<linearGradient id="Rectangle_38_1_" gradientUnits="userSpaceOnUse" x1="423.2775" y1="1038.0144" x2="423.2775" y2="1037.0924" gradientTransform="matrix(170.397 0 0 -62.208 -71261.2422 65323.8164)">
		<stop  offset="0" style="stop-color:#54574F"/>
		<stop  offset="1" style="stop-color:#1F1F1D"/>
	</linearGradient>
	<rect id="Rectangle_38" x="778.8" y="746.2" class="st20" width="170.4" height="62.2"/>
	
		<linearGradient id="Rectangle_39_1_" gradientUnits="userSpaceOnUse" x1="423.3208" y1="1031.2076" x2="423.3208" y2="1030.2076" gradientTransform="matrix(148.746 0 0 -8.594 -62102.3281 9635.9219)">
		<stop  offset="0" style="stop-color:#23221F"/>
		<stop  offset="1" style="stop-color:#151515"/>
	</linearGradient>
	<rect id="Rectangle_39" x="790.6" y="773.7" class="st21" width="148.7" height="8.6"/>
	
		<linearGradient id="Rectangle_40_1_" gradientUnits="userSpaceOnUse" x1="423.8696" y1="1034.9767" x2="423.8696" y2="1033.9767" gradientTransform="matrix(56.978 0 0 -16.271 -23287.2676 17609.2383)">
		<stop  offset="0" style="stop-color:#23221F"/>
		<stop  offset="1" style="stop-color:#151515"/>
	</linearGradient>
	<rect id="Rectangle_40" x="835.5" y="769.1" class="st22" width="57" height="16.3"/>
	
		<linearGradient id="Rectangle_41_1_" gradientUnits="userSpaceOnUse" x1="424.3927" y1="1032.0603" x2="424.3927" y2="1031.0603" gradientTransform="matrix(35.878 0 0 -9.621 -14305.2119 10721.6475)">
		<stop  offset="0" style="stop-color:#C5C697"/>
		<stop  offset="1" style="stop-color:#63634C"/>
	</linearGradient>
	<rect id="Rectangle_41" x="903.2" y="792.2" class="st23" width="35.9" height="9.6"/>
	
		<linearGradient id="Rectangle_42_1_" gradientUnits="userSpaceOnUse" x1="423.2775" y1="1038.0924" x2="423.2775" y2="1037.0924" gradientTransform="matrix(170.397 0 0 -62.208 -71260.4063 65398.3008)">
		<stop  offset="0" style="stop-color:#54574F"/>
		<stop  offset="1" style="stop-color:#242521"/>
	</linearGradient>
	<rect id="Rectangle_42" x="779.6" y="820.6" class="st24" width="170.4" height="62.2"/>
	
		<linearGradient id="Rectangle_43_1_" gradientUnits="userSpaceOnUse" x1="423.3208" y1="1031.2076" x2="423.3208" y2="1030.2076" gradientTransform="matrix(148.746 0 0 -8.594 -62101.4961 9710.4063)">
		<stop  offset="0" style="stop-color:#23221F"/>
		<stop  offset="1" style="stop-color:#181716"/>
	</linearGradient>
	<rect id="Rectangle_43" x="791.4" y="848.2" class="st25" width="148.7" height="8.6"/>
	
		<linearGradient id="Rectangle_44_1_" gradientUnits="userSpaceOnUse" x1="423.8696" y1="1034.9767" x2="423.8696" y2="1033.9767" gradientTransform="matrix(56.978 0 0 -16.271 -23286.4336 17683.7227)">
		<stop  offset="0" style="stop-color:#23221F"/>
		<stop  offset="1" style="stop-color:#181716"/>
	</linearGradient>
	<rect id="Rectangle_44" x="836.3" y="843.6" class="st26" width="57" height="16.3"/>
	
		<linearGradient id="Rectangle_45_1_" gradientUnits="userSpaceOnUse" x1="424.3927" y1="1032.0603" x2="424.3927" y2="1031.0603" gradientTransform="matrix(35.878 0 0 -9.621 -14304.3779 10796.1309)">
		<stop  offset="0" style="stop-color:#C5C697"/>
		<stop  offset="1" style="stop-color:#63634C"/>
	</linearGradient>
	<rect id="Rectangle_45" x="904" y="866.7" class="st27" width="35.9" height="9.6"/>
	
		<linearGradient id="Path_17_1_" gradientUnits="userSpaceOnUse" x1="423.0793" y1="1036.6661" x2="423.0793" y2="1035.6661" gradientTransform="matrix(510.339 0 0 -27.137 -215185.5313 29069.543)">
		<stop  offset="0" style="stop-color:#729B6A"/>
		<stop  offset="1" style="stop-color:#4F7E44"/>
	</linearGradient>
	<path id="Path_17" class="st28" d="M983.5,964.6H473.2v-27.1h510.3"/>
	
		<linearGradient id="Path_18_1_" gradientUnits="userSpaceOnUse" x1="423.1394" y1="1031.6517" x2="423.1394" y2="1030.6517" gradientTransform="matrix(318.043 0 0 -9.1 -133850.0469 10316.4004)">
		<stop  offset="0" style="stop-color:#B0BD6B"/>
		<stop  offset="1" style="stop-color:#86953F"/>
	</linearGradient>
	<path id="Path_18" class="st29" d="M567.5,937.5l4.8-9.1h308.9l4.3,9L567.5,937.5z"/>
	
		<linearGradient id="Path_19_1_" gradientUnits="userSpaceOnUse" x1="424.6844" y1="1032.0365" x2="424.6844" y2="1031.0365" gradientTransform="matrix(29.738 0 0 -9.589 -11718.041 10824.2764)">
		<stop  offset="0" style="stop-color:#B0BD6B"/>
		<stop  offset="1" style="stop-color:#86953F"/>
	</linearGradient>
	<path id="Path_19" class="st30" d="M896.3,937.7l4.8-9.6l20,0.1l4.9,9.4L896.3,937.7z"/>
	
		<linearGradient id="Path_20_1_" gradientUnits="userSpaceOnUse" x1="424.6685" y1="1032.0365" x2="424.6685" y2="1031.0365" gradientTransform="matrix(30.017 0 0 -9.589 -11793.207 10824.1533)">
		<stop  offset="0" style="stop-color:#B0BD6B"/>
		<stop  offset="1" style="stop-color:#86953F"/>
	</linearGradient>
	<path id="Path_20" class="st31" d="M939,937.6l4.8-9.6l20.3,0.1l4.9,9.4L939,937.6z"/>
	
		<linearGradient id="Path_21_1_" gradientUnits="userSpaceOnUse" x1="424.6843" y1="1032.0365" x2="424.6843" y2="1031.0365" gradientTransform="matrix(29.739 0 0 -9.589 -12128.792 10824.3281)">
		<stop  offset="0" style="stop-color:#B0BD6B"/>
		<stop  offset="1" style="stop-color:#86953F"/>
	</linearGradient>
	<path id="Path_21" class="st32" d="M486,937.7l4.8-9.6l20,0.1l4.9,9.4L486,937.7z"/>
	
		<linearGradient id="Path_22_1_" gradientUnits="userSpaceOnUse" x1="424.6686" y1="1032.0365" x2="424.6686" y2="1031.0365" gradientTransform="matrix(30.016 0 0 -9.589 -12203.1045 10824.2021)">
		<stop  offset="0" style="stop-color:#B0BD6B"/>
		<stop  offset="1" style="stop-color:#86953F"/>
	</linearGradient>
	<path id="Path_22" class="st33" d="M528.7,937.6l4.8-9.6l20.3,0.1l4.9,9.4L528.7,937.6z"/>
</g>
</svg>
