<?xml version="1.0" encoding="utf-8"?>
<!-- Generator: Adobe Illustrator 24.1.1, SVG Export Plug-In . SVG Version: 6.00 Build 0)  -->
<svg version="1.1" xmlns="http://www.w3.org/2000/svg" xmlns:xlink="http://www.w3.org/1999/xlink" x="0px" y="0px"
	 viewBox="0 0 792 612" style="enable-background:new 0 0 792 612;" xml:space="preserve">
<style type="text/css">
	.st0{fill:url(#Rectangle_20_1_);}
	.st1{fill:url(#Rectangle_21_1_);}
	.st2{fill:#111511;}
	.st3{fill:#0D5D5A;}
	.st4{fill:url(#Path_23_1_);}
	.st5{fill:#FFFFFF;stroke:#FFFFFF;stroke-miterlimit:10;}
	.st6{fill:#527EC0;}
	.st7{font-family:'ProductSans-Bold';}
	.st8{font-size:28.3444px;}
	.st9{fill:#EC4133;}
	.st10{fill:#F8BD1E;}
	.st11{fill:#2CA84F;}
	.st12{fill:none;stroke:#D1D3D4;stroke-miterlimit:10;}
	.st13{fill:none;stroke:#527EC0;stroke-width:2;stroke-miterlimit:10;}
	.st14{font-family:'Montserrat-Light';}
	.st15{font-size:12px;}
</style>
<g id="zoomed-screen">
	<g id="Group_41" transform="translate(0 0)">
		<g id="Group_36" transform="translate(0 0)">
			
				<linearGradient id="Rectangle_20_1_" gradientUnits="userSpaceOnUse" x1="1.3854" y1="612.9254" x2="1.3854" y2="612.2838" gradientTransform="matrix(1024 0 0 -768 -1023 470785)">
				<stop  offset="0" style="stop-color:#B6DA9C;stop-opacity:0.659"/>
				<stop  offset="1" style="stop-color:#203921"/>
			</linearGradient>
			<path id="Rectangle_20" class="st0" d="M14.5,16h762.3c2.9,0,5.3,2.4,5.3,5.3v569.1c0,2.9-2.4,5.3-5.3,5.3H14.5
				c-2.9,0-5.3-2.4-5.3-5.3V21.3C9.2,18.4,11.6,16,14.5,16z"/>
		</g>
		<g id="Group_37" transform="translate(64.235 86.67)">
			
				<linearGradient id="Rectangle_21_1_" gradientUnits="userSpaceOnUse" x1="-62.8661" y1="525.5864" x2="-62.8661" y2="526.3041" gradientTransform="matrix(894.219 0 0 -564.673 56546.9375 297205.3125)">
				<stop  offset="0" style="stop-color:#54652C"/>
				<stop  offset="1" style="stop-color:#445223"/>
			</linearGradient>
			<path id="Rectangle_21" class="st1" d="M-1.3-5.2H663c2.9,0,5.3,2.4,5.3,5.3v415.6c0,2.9-2.4,5.3-5.3,5.3H-1.3
				c-2.9,0-5.3-2.4-5.3-5.3V0C-6.6-2.9-4.2-5.2-1.3-5.2z"/>
		</g>
		<g id="Group_38" transform="translate(91.168 102.693)">
			<path id="Rectangle_22" class="st2" d="M-7.9-9.2h626.5c2.9,0,5.3,2.4,5.3,5.3v390.5c0,2.9-2.4,5.3-5.3,5.3H-7.9
				c-2.9,0-5.3-2.4-5.3-5.3V-3.9C-13.2-6.8-10.8-9.2-7.9-9.2z"/>
		</g>
		<g id="Group_39" transform="translate(99.017 111.726)">
			<path id="Rectangle_23" class="st3" d="M-11.3-11.4h615.1c2.1,0,3.8,1.7,3.8,3.8v378.2c0,2.1-1.7,3.8-3.8,3.8H-11.3
				c-2.1,0-3.8-1.7-3.8-3.8V-7.6C-15.1-9.7-13.4-11.4-11.3-11.4z"/>
		</g>
		
			<radialGradient id="Path_23_1_" cx="-1.3726" cy="615.3638" r="0.5321" gradientTransform="matrix(73.555 0 0 -55.145 785.512 34482.3711)" gradientUnits="userSpaceOnUse">
			<stop  offset="0" style="stop-color:#FEE990"/>
			<stop  offset="1" style="stop-color:#99812E"/>
		</radialGradient>
		<path id="Path_23" class="st4" d="M656.8,527.3h55.5v41.6h-55.5V527.3z"/>
	</g>
</g>
<g id="searchscreen">
	<path id="Rectangle_23_1_" class="st5" d="M87.3,102.1h615.1c2.1,0,3.8,1.7,3.8,3.8V484c0,2.1-1.7,3.8-3.8,3.8H87.3
		c-2.1,0-3.8-1.7-3.8-3.8V105.9C83.5,103.8,85.2,102.1,87.3,102.1z"/>
	<text transform="matrix(1 0 0 1 113.7559 143.7745)"><tspan x="0" y="0" class="st6 st7 st8">G</tspan><tspan x="23" y="0" class="st9 st7 st8">ô</tspan><tspan x="39.3" y="0" class="st10 st7 st8">ô</tspan><tspan x="55.6" y="0" class="st6 st7 st8">g</tspan><tspan x="72.5" y="0" class="st11 st7 st8">l</tspan><tspan x="79.4" y="0" class="st9 st7 st8">e</tspan></text>
	<g>
		<path class="st12" d="M217.3,134.3c0,7.3,6,13.3,13.3,13.3h327.4c7.3,0,13.3-6,13.3-13.3c0-7.3-6-13.3-13.3-13.3H230.6
			C223.2,121,217.3,127,217.3,134.3C217.3,134.3,217.3,127,217.3,134.3z"/>
	</g>
	<path class="st13" d="M558.9,131.7c0.3,1.7-0.4,3.2-1.6,4.2c-0.9,0.7-2.2,1.1-3.5,0.8c-1.6-0.3-2.9-1.6-3.2-3.2
		c-0.7-3.1,2-5.8,5.1-5.1C557.3,128.7,558.6,130,558.9,131.7z"/>
	<line class="st13" x1="563.1" y1="139.1" x2="558.2" y2="135.3"/>
	<text transform="matrix(1 0 0 1 227.8146 139.6136)" class="st14 st15">danish museum of science and technology</text>
	<g id="sampleimg_5_">
		
			<image style="overflow:visible;" width="1024" height="576" id="Layer_0_1_" xlink:href="img/BA2562AE.png"  transform="matrix(0.1879 0 0 0.1957 96.3693 176.0584)">
		</image>
	</g>
	<g id="sampleimg_4_">
		
			<image style="overflow:visible;" width="1024" height="576" id="lrMpuj_2_" xlink:href="img/BA2562B2.jpg"  transform="matrix(0.1916 0 0 0.1966 300.2957 176.1031)">
		</image>
	</g>
	<g id="sampleimg_3_">
		
			<image style="overflow:visible;" width="1024" height="576" id="Layer_0_2_" xlink:href="img/BA2562B2.png"  transform="matrix(0.1826 0 0 0.1938 507.0763 176.5998)">
		</image>
	</g>
	<g id="sampleimg_2_">
		
			<image style="overflow:visible;" width="1024" height="576" id="Layer_0_3_" xlink:href="img/BA2562B6.png"  transform="matrix(0.2151 0 0 0.2151 96.9027 298.9364)">
		</image>
	</g>
	<g id="sampleimg_1_">
		
			<image style="overflow:visible;" width="200" height="200" id="Layer_0_4_" xlink:href="img/BA2562B5.png"  transform="matrix(0.6135 0 0 0.6135 330.6847 300.626)">
		</image>
	</g>
	<g id="sampleimg">
		
			<image style="overflow:visible;" width="300" height="200" id="Layer_0_5_" xlink:href="img/BA2562B3.png"  transform="matrix(0.6287 0 0 0.618 464.6054 299.4907)">
		</image>
	</g>
</g>
</svg>
