<?xml version="1.0" encoding="utf-8"?>
<!-- Generator: Adobe Illustrator 24.1.1, SVG Export Plug-In . SVG Version: 6.00 Build 0)  -->
<svg version="1.1" xmlns="http://www.w3.org/2000/svg" xmlns:xlink="http://www.w3.org/1999/xlink" x="0px" y="0px"
	 viewBox="0 0 792 612" style="enable-background:new 0 0 792 612;" xml:space="preserve">
<style type="text/css">
	.st0{fill:url(#Rectangle_20_1_);}
	.st1{fill:url(#Rectangle_21_1_);}
	.st2{fill:#111511;}
	.st3{fill:#0D5D5A;}
	.st4{fill:url(#Path_23_1_);}
	.st5{fill:#FFFFFF;stroke:#FFFFFF;stroke-miterlimit:10;}
	.st6{fill:#527EC0;}
	.st7{font-family:'ProductSans-Bold';}
	.st8{font-size:68.3762px;}
	.st9{fill:#EC4133;}
	.st10{fill:#F8BD1E;}
	.st11{fill:#2CA84F;}
	.st12{fill:#FFFFFF;stroke:#FFFFFF;stroke-width:2;stroke-miterlimit:10;}
	.st13{fill:none;stroke:#FFFFFF;stroke-width:2;stroke-miterlimit:10;}
	.st14{fill:none;stroke:#939598;stroke-width:2;stroke-miterlimit:10;}
	.st15{fill:none;stroke:#D1D3D4;stroke-miterlimit:10;}
</style>
<g id="zoomed-screen">
	<g id="Group_41" transform="translate(0 0)">
		<g id="Group_36" transform="translate(0 0)">
			
				<linearGradient id="Rectangle_20_1_" gradientUnits="userSpaceOnUse" x1="1.3881" y1="612.9227" x2="1.3881" y2="612.2811" gradientTransform="matrix(1024 0 0 -768 -1023 470785)">
				<stop  offset="0" style="stop-color:#B6DA9C;stop-opacity:0.659"/>
				<stop  offset="1" style="stop-color:#203921"/>
			</linearGradient>
			<path id="Rectangle_20" class="st0" d="M17.3,18.1h762.3c2.9,0,5.3,2.4,5.3,5.3v569.1c0,2.9-2.4,5.3-5.3,5.3H17.3
				c-2.9,0-5.3-2.4-5.3-5.3V23.4C12,20.5,14.4,18.1,17.3,18.1z"/>
		</g>
		<g id="Group_37" transform="translate(64.235 86.67)">
			
				<linearGradient id="Rectangle_21_1_" gradientUnits="userSpaceOnUse" x1="-62.8629" y1="525.5826" x2="-62.8629" y2="526.3004" gradientTransform="matrix(894.219 0 0 -564.673 56546.9375 297205.3125)">
				<stop  offset="0" style="stop-color:#54652C"/>
				<stop  offset="1" style="stop-color:#445223"/>
			</linearGradient>
			<path id="Rectangle_21" class="st1" d="M1.6-3.2h664.3c2.9,0,5.3,2.4,5.3,5.3v415.6c0,2.9-2.4,5.3-5.3,5.3H1.6
				c-2.9,0-5.3-2.4-5.3-5.3V2.1C-3.7-0.8-1.3-3.2,1.6-3.2z"/>
		</g>
		<g id="Group_38" transform="translate(91.168 102.693)">
			<path id="Rectangle_22" class="st2" d="M-5-7.1h626.5c2.9,0,5.3,2.4,5.3,5.3v390.5c0,2.9-2.4,5.3-5.3,5.3H-5
				c-2.9,0-5.3-2.4-5.3-5.3V-1.8C-10.3-4.7-8-7.1-5-7.1z"/>
		</g>
		<g id="Group_39" transform="translate(99.017 111.726)">
			<path id="Rectangle_23" class="st3" d="M-8.5-9.3h615.1c2.1,0,3.8,1.7,3.8,3.8v378.2c0,2.1-1.7,3.8-3.8,3.8H-8.5
				c-2.1,0-3.8-1.7-3.8-3.8V-5.5C-12.2-7.6-10.6-9.3-8.5-9.3z"/>
		</g>
		
			<radialGradient id="Path_23_1_" cx="-1.3338" cy="615.3259" r="0.5321" gradientTransform="matrix(73.555 0 0 -55.145 785.512 34482.3711)" gradientUnits="userSpaceOnUse">
			<stop  offset="0" style="stop-color:#FEE990"/>
			<stop  offset="1" style="stop-color:#99812E"/>
		</radialGradient>
		<path id="Path_23" class="st4" d="M659.6,529.4h55.5V571h-55.5V529.4z"/>
	</g>
</g>
<g id="googlescreen">
	<path id="Rectangle_23_1_" class="st5" d="M90.1,104.2h615.1c2.1,0,3.8,1.7,3.8,3.8v378.2c0,2.1-1.7,3.8-3.8,3.8H90.1
		c-2.1,0-3.8-1.7-3.8-3.8V107.9C86.4,105.9,88,104.2,90.1,104.2z"/>
	<text transform="matrix(1 0 0 1 289.6208 242.6576)"><tspan x="0" y="0" class="st6 st7 st8">G</tspan><tspan x="55.4" y="0" class="st9 st7 st8">ô</tspan><tspan x="94.8" y="0" class="st10 st7 st8">ô</tspan><tspan x="134.2" y="0" class="st6 st7 st8">g</tspan><tspan x="175" y="0" class="st11 st7 st8">l</tspan><tspan x="191.6" y="0" class="st9 st7 st8">e</tspan></text>
	<g id="searchbar">
		<g id="searchBtn">
			<circle class="st6" cx="602.4" cy="304.3" r="11.4"/>
			<line class="st12" x1="608.6" y1="304.3" x2="594.8" y2="304.3"/>
			<polyline class="st13" points="604.4,298.8 609.1,304.6 604.3,309.8 			"/>
		</g>
		<line class="st14" x1="217.5" y1="311.8" x2="211.5" y2="307.1"/>
		<path class="st14" d="M212.4,302.7c0.4,2-0.4,3.9-1.9,5.1c-1.1,0.9-2.7,1.3-4.3,1c-1.9-0.4-3.5-1.9-3.9-3.9
			c-0.8-3.8,2.4-7,6.2-6.2C210.5,299.1,212,300.7,212.4,302.7z"/>
		<g>
			<path class="st15" d="M191.3,306.1c0,8.3,6.7,15,15,15h400.1c8.3,0,15-6.7,15-15v-2.3c0-8.3-6.7-15-15-15H206.3
				c-8.3,0-15,6.7-15,15V306.1z"/>
		</g>
	</g>
</g>
</svg>
